HIERARCHY
ROOT Hips
{
	OFFSET 0.000000 0.000000 0.000000
	CHANNELS 6 Xposition Yposition Zposition Zrotation Yrotation Xrotation 
	JOINT LHipJoint
	{
		OFFSET 0.000000 0.000000 0.000000
		CHANNELS 3 Zrotation Yrotation Xrotation
		JOINT LeftUpLeg
		{
			OFFSET 1.363060 -1.794630 0.839290
			CHANNELS 3 Zrotation Yrotation Xrotation
			JOINT LeftLeg
			{
				OFFSET 2.448110 -6.726130 0.000000
				CHANNELS 3 Zrotation Yrotation Xrotation
				JOINT LeftFoot
				{
					OFFSET 2.562200 -7.039590 0.000000
					CHANNELS 3 Zrotation Yrotation Xrotation
					JOINT LeftToeBase
					{
						OFFSET 0.157640 -0.433110 2.322550
						CHANNELS 3 Zrotation Yrotation Xrotation
						End Site
						{
							OFFSET 0.000000 0.000000 0.000000
						}
					}
				}
			}
		}
	}
	JOINT RHipJoint
	{
		OFFSET 0.000000 0.000000 0.000000
		CHANNELS 3 Zrotation Yrotation Xrotation
		JOINT RightUpLeg
		{
			OFFSET -1.305520 -1.794630 0.839290
			CHANNELS 3 Zrotation Yrotation Xrotation
			JOINT RightLeg
			{
				OFFSET -2.542530 -6.985550 0.000000
				CHANNELS 3 Zrotation Yrotation Xrotation
				JOINT RightFoot
				{
					OFFSET -2.568260 -7.056230 0.000000
					CHANNELS 3 Zrotation Yrotation Xrotation
					JOINT RightToeBase
					{
						OFFSET -0.164730 -0.452590 2.363150
						CHANNELS 3 Zrotation Yrotation Xrotation
						End Site
						{
							OFFSET 0.000000 0.000000 0.000000
						}
					}
				}
			}
		}
	}
}
MOTION
Frames: 22
Frame Time: 0.008333
-1.598495 16.695500 -1.248788 175.483234 79.480045 -179.680921 -8.946909 2.313133 0.879759 -25.078118 15.146861 -35.805704 -2.977308 0.431725 24.761367 3.103533 14.494581 -14.374187 178.422300 -0.000000 -6.186900 11.497241 -4.108046 -0.954912 -2.993202 -19.615006 -8.771464 -0.203648 -3.238120 49.511802 0.106373 12.942709 15.714955 4.953100 -0.000000 -86.699800
-1.488787 16.649267 -1.289038 173.746521 79.291999 178.634935 -8.900541 2.375995 0.834253 -25.387721 14.729816 -36.177965 -2.925916 0.623806 26.655104 3.153112 14.604261 -14.971286 178.233500 -0.000000 -6.886299 11.650569 -3.906174 -0.921248 -3.472546 -19.072560 -10.444911 -0.492389 -3.377701 52.879308 -0.074913 12.627090 17.521317 5.311600 0.000000 -84.723600
-1.385706 16.601033 -1.328222 172.205061 79.036024 177.132908 -8.860415 2.417790 0.768312 -25.651315 14.256827 -36.459725 -2.868990 0.808115 28.516402 3.208758 14.723268 -15.678154 178.007300 0.000000 -7.461000 11.790687 -3.684275 -0.915295 -3.877087 -18.461892 -12.084033 -0.762944 -3.520205 56.212410 -0.257379 11.971998 18.989939 5.434500 0.000000 -81.990800
-1.288820 16.552129 -1.366628 170.860270 78.713787 175.806379 -8.826515 2.440646 0.680621 -25.875162 13.749816 -36.614383 -2.809748 0.979029 30.284371 3.270350 14.861031 -16.470197 177.748700 0.000000 -7.889600 11.919727 -3.447982 -0.939017 -4.224123 -17.805909 -13.672960 -1.019468 -3.670074 59.479585 -0.436660 10.955574 20.042915 5.282500 0.000001 -78.794099
-1.197465 16.504045 -1.404697 169.714659 78.326918 174.654462 -8.798762 2.446832 0.571894 -26.067193 13.229459 -36.621305 -2.751576 1.132050 31.909309 3.337492 15.021920 -17.323970 177.463000 -0.000000 -8.200600 12.038699 -3.203330 -0.989867 -4.523451 -17.118026 -15.203129 -1.267213 -3.829323 62.646135 -0.611378 9.574789 20.632432 4.848200 0.000000 -75.433701
-1.110716 16.458338 -1.442784 168.747343 77.878480 173.658449 -8.776078 2.439937 0.445162 -26.239597 12.710466 -36.469908 -2.697608 1.263985 33.347917 3.409594 15.209271 -18.208218 177.158000 0.000000 -8.403900 12.148450 -2.954501 -1.062070 -4.785593 -16.405323 -16.672356 -1.510580 -3.997083 65.674932 -0.782296 7.855592 20.741918 4.160900 0.000000 -72.146200
-1.027606 16.416421 -1.481418 167.964403 77.370840 172.829763 -8.758692 2.422111 0.304676 -26.398486 12.206884 -36.167792 -2.649985 1.373160 34.577095 3.484430 15.414763 -19.095804 176.842100 0.000000 -8.540400 12.247893 -2.706936 -1.146832 -5.010312 -15.667988 -18.082976 -1.751382 -4.170604 68.528875 -0.951077 5.849880 20.379443 3.278900 -0.000000 -69.052200
-0.947113 16.379574 -1.521014 167.353454 76.807165 172.164242 -8.746026 2.396186 0.155617 -26.550889 11.727153 -35.728017 -2.610324 1.459039 35.580837 3.559016 15.626653 -19.955516 176.526599 -0.000000 -8.631600 12.336121 -2.464168 -1.234748 -5.200536 -14.904386 -19.438947 -1.988593 -4.345431 71.170131 -1.119131 3.638084 19.577480 2.283899 -0.000000 -66.169601
-0.868204 16.348872 -1.562059 166.914283 76.190284 171.671118 -8.738117 2.364122 0.003304 -26.698696 11.277548 -35.171439 -2.579459 1.522076 36.356688 3.629072 15.825086 -20.760415 176.224100 0.000000 -8.703000 12.411522 -2.229692 -1.316057 -5.356311 -14.111059 -20.745402 -2.218251 -4.516281 73.561454 -1.286778 1.319210 18.390240 1.266500 0.000000 -63.444700
-0.790035 16.325174 -1.604940 166.639090 75.522327 171.349846 -8.734783 2.328028 -0.147063 -26.841374 10.862249 -34.516794 -2.557901 1.563173 36.906677 3.689544 15.986627 -21.485161 175.949000 -0.000001 -8.774200 12.472838 -2.006527 -1.381857 -5.480516 -13.285983 -22.002977 -2.434179 -4.677558 75.666921 -1.452507 -0.996252 16.892085 0.313600 -0.000000 -60.773901
-0.711861 16.308847 -1.649997 166.531409 74.805372 171.213483 -8.736280 2.288815 -0.291612 -26.973798 10.482665 -33.789404 -2.545676 1.584154 37.246242 3.735083 16.084112 -22.113790 175.714300 -0.000000 -8.859400 12.518481 -1.796876 -1.425425 -5.572863 -12.428703 -23.215180 -2.628998 -4.824093 77.456977 -1.612674 -3.199556 15.172278 -0.505300 -0.000000 -58.084200
-0.633136 16.300136 -1.697533 166.590321 74.040550 171.266034 -8.742784 2.247575 -0.426668 -27.088741 10.139240 -33.007802 -2.542712 1.586719 37.390436 3.760594 16.091886 -22.634468 175.532400 0.000000 -8.962000 12.547291 -1.602859 -1.441452 -5.634483 -11.541395 -24.380173 -2.795100 -4.951187 78.906343 -1.761617 -5.192530 13.329500 -1.146099 -0.000000 -55.314900
-0.553517 16.298935 -1.747748 166.812998 73.228795 171.507354 -8.754569 2.205028 -0.549540 -27.176432 9.830553 -32.186197 -2.548647 1.572696 37.357279 3.762143 15.989704 -23.042714 175.412100 -0.000000 -9.077500 12.558377 -1.425757 -1.427312 -5.666643 -10.629887 -25.494568 -2.925820 -5.055177 79.997890 -1.892367 -6.897552 11.460882 -1.593700 -0.000000 -52.460799
-0.472824 16.304992 -1.800775 167.193903 72.370823 171.932789 -8.771766 2.161732 -0.658559 -27.226729 9.553459 -31.334719 -2.563059 1.543913 37.164505 3.737243 15.764094 -23.340284 175.357700 0.000001 -9.195001 12.551153 -1.265678 -1.383150 -5.669468 -9.703034 -26.554228 -3.016208 -5.133488 80.722808 -1.997961 -8.263719 9.653232 -1.858700 -0.000000 -49.569600
-0.390966 16.317828 -1.856713 167.720627 71.469019 172.528999 -8.794401 2.118171 -0.753223 -27.229824 9.303421 -30.457587 -2.585438 1.502038 36.826896 3.685406 15.411545 -23.534241 175.368600 0.000001 -9.300300 12.525331 -1.121476 -1.311833 -5.642927 -8.771489 -27.553110 -3.063458 -5.184623 81.079771 -2.072766 -9.268653 7.974080 -1.970200 0.000000 -46.736300
-0.308065 16.336861 -1.915574 168.375492 70.524990 173.273310 -8.822522 2.074948 -0.832428 -27.177124 9.074283 -29.552884 -2.614869 1.448287 36.355531 3.608208 14.939364 -23.634518 175.439601 -0.000000 -9.375800 12.480928 -0.991906 -1.216874 -5.586399 -7.846926 -28.484231 -3.066879 -5.207982 81.073653 -2.113845 -9.918853 6.467612 -1.966000 -0.000000 -44.083099
-0.224247 16.361475 -1.977291 169.135238 69.542175 174.138139 -8.856015 2.032482 -0.896195 -27.063290 8.857930 -28.616118 -2.650379 1.383689 35.757064 3.509029 14.363987 -23.652973 175.561900 -0.000000 -9.405900 12.418069 -0.874348 -1.103718 -5.499049 -6.939989 -29.341377 -3.027814 -5.203817 80.715249 -2.121481 -10.245531 5.152930 -1.884200 0.000001 -41.731800
-0.139692 16.391062 -2.041874 169.975085 68.525933 175.094757 -8.894973 1.990866 -0.944990 -26.884809 8.644797 -27.640731 -2.690621 1.308937 35.034098 3.392790 13.710412 -23.601179 175.724200 0.000000 -9.379500 12.336745 -0.765600 -0.978333 -5.379653 -6.058222 -30.119034 -2.949074 -5.172879 80.018497 -2.099208 -10.299937 4.025224 -1.757600 0.000000 -39.774800
-0.054557 16.424982 -2.109251 170.867861 67.481964 176.112706 -8.939444 1.950038 -0.978678 -26.641910 8.423259 -26.620134 -2.733975 1.224328 34.186139 3.265334 13.008619 -23.489929 175.914101 -0.000000 -9.289200 12.236915 -0.662472 -0.845987 -5.227960 -5.206891 -30.813968 -2.834507 -5.116326 78.999559 -2.053465 -10.148422 3.060631 -1.611500 -0.000000 -38.254400
0.030985 16.462717 -2.179354 171.791173 66.416095 177.164978 -8.989939 1.909492 -0.996629 -26.336444 8.181799 -25.547442 -2.778259 1.129750 33.210301 3.132504 12.290321 -23.325998 176.120400 -0.000000 -9.133500 12.118213 -0.562856 -0.710548 -5.043260 -4.387133 -31.422381 -2.688371 -5.035499 77.673695 -1.992794 -9.866330 2.223679 -1.463900 0.000000 -37.157600
0.116867 16.503774 -2.252161 172.726336 65.334414 178.232882 -9.047009 1.868193 -0.998310 -25.971693 7.907094 -24.420843 -2.821094 1.025094 32.105091 2.999798 11.585616 -23.115159 176.332800 -0.000001 -8.919200 11.979982 -0.464403 -0.575303 -4.824832 -3.597268 -31.944018 -2.515163 -4.931696 76.054846 -1.927060 -9.532093 1.476385 -1.327300 0.000000 -36.430500
0.203009 16.547683 -2.327648 173.662212 64.242746 179.304665 -9.111708 1.824720 -0.982773 -25.550802 7.586866 -23.241316 -2.859651 0.910271 30.870843 2.871533 10.920109 -22.859248 176.543700 -0.000000 -8.658700 11.821218 -0.365986 -0.441980 -4.571465 -2.832799 -32.378066 -2.319330 -4.806021 74.153247 -1.866561 -9.221167 0.786540 -1.210700 -0.000000 -35.995500
